#!OML:ASF X:\für Bonn\!DataBase\2005_08_11_Bastian_Final\c3d\Bastian.ASF
:FULLY-SPECIFIED
:DEGREES
439
root 1.25238 1.45099 25.1032 -805.525 -174.623 -715.505
lowerback 38.746 3.6242 -0.817749
upperback 26.6018 -7.27887 -0.483212
thorax 11.112 -9.69974 0.491946
lowerneck -1.37649 -1.23651 -3.89431
upperneck 13.9856 -0.464323 -2.04547
head 4.92148 -0.231694 -0.0039628
rclavicle 3.27125e-014 -2.84262e-014
rhumerus -45.0886 29.7363 -87.324
rradius 58.9276
rwrist 16.8069
rhand -35.4049 3.51456
rfingers 7.12502
rthumb -8.5355 -26.2929
lclavicle 3.27125e-014 -2.84262e-014
lhumerus -34.9697 -33.5042 77.2179
lradius 45.7569
lwrist 15.0848
lhand -31.5418 -19.2262
lfingers 7.12502
lthumb -4.80633 10.6993
rfemur -36.6553 -8.46897 16.9888
rtibia 68.2444
rfoot 12.5206 -7.11924
rtoes -1.03377
lfemur -7.70585 -1.83445 -25.6061
ltibia 12.5321
lfoot 9.44334 -5.77966
ltoes -25.865
440
root 1.24995 1.44702 25.1129 -805.772 -174.699 -715.444
lowerback 38.5098 3.59563 -0.887076
upperback 26.5901 -7.25437 -0.491822
thorax 11.1712 -9.66685 0.498559
lowerneck -1.0101 -1.23299 -3.98973
upperneck 14.2451 -0.416611 -2.03728
head 4.94564 -0.194539 0.0194832
rclavicle 2.73577e-014 4.45278e-014
rhumerus -45.0636 29.6361 -87.3375
rradius 58.7335
rwrist 17.1991
rhand -35.7278 3.31361
rfingers 7.12502
rthumb -8.84714 -26.4809
lclavicle 2.73577e-014 4.45278e-014
lhumerus -34.9639 -33.2676 77.2931
lradius 45.6013
lwrist 14.9897
lhand -31.5999 -19.2888
lfingers 7.12502
lthumb -4.86237 10.6354
rfemur -35.6675 -8.02863 16.8702
rtibia 66.9073
rfoot 12.2909 -7.44591
rtoes -0.703654
lfemur -7.3939 -1.78149 -25.5666
ltibia 12.3779
lfoot 9.45144 -5.98644
ltoes -25.9728
441
root 1.24759 1.44455 25.1208 -806.009 -174.777 -715.392
lowerback 38.2555 3.56107 -0.915717
upperback 26.5734 -7.21268 -0.512168
thorax 11.225 -9.61197 0.468874
lowerneck -0.625031 -1.25431 -4.04384
upperneck 14.5183 -0.396852 -2.06513
head 4.97136 -0.169079 0.0220556
rclavicle -6.50026e-014 -2.8128e-014
rhumerus -45.1028 29.4786 -87.3805
rradius 58.5943
rwrist 17.4835
rhand -35.9961 3.11571
rfingers 7.12502
rthumb -9.10602 -26.6677
lclavicle -6.50026e-014 -2.8128e-014
lhumerus -34.9657 -33.1801 77.3721
lradius 45.4777
lwrist 15.0093
lhand -31.6777 -19.3675
lfingers 7.12502
lthumb -4.93753 10.555
rfemur -34.6689 -7.54103 16.7587
rtibia 65.5533
rfoot 12.0079 -7.80014
rtoes -0.328669
lfemur -7.12855 -1.76494 -25.5194
ltibia 12.305
lfoot 9.43195 -6.12567
ltoes -25.9563
442
root 1.24579 1.44113 25.126 -806.246 -174.856 -715.32
lowerback 37.9849 3.527 -0.975686
upperback 26.5641 -7.18575 -0.505443
thorax 11.3012 -9.5753 0.483414
lowerneck -0.295271 -1.26456 -4.1367
upperneck 14.8161 -0.354118 -2.09508
head 5.01817 -0.134611 0.03158
rclavicle -6.56238e-014 6.36111e-015
rhumerus -45.073 29.4062 -87.3634
rradius 58.4958
rwrist 17.6506
rhand -36.196 2.89611
rfingers 7.12502
rthumb -9.29894 -26.8788
lclavicle -6.56238e-014 6.36111e-015
lhumerus -34.935 -32.969 77.4512
lradius 45.3181
lwrist 14.9165
lhand -31.7602 -19.4354
lfingers 7.12502
lthumb -5.01723 10.4852
rfemur -33.6707 -7.05656 16.6665
rtibia 64.1928
rfoot 11.7267 -8.12406
rtoes -0.195463
lfemur -6.90268 -1.77346 -25.4619
ltibia 12.2936
lfoot 9.41488 -6.26667
ltoes -25.8513
443
root 1.24429 1.43809 25.1297 -806.495 -174.931 -715.259
lowerback 37.7361 3.49117 -1.02784
upperback 26.5466 -7.15619 -0.515691
thorax 11.3578 -9.53289 0.479398
lowerneck 0.0349932 -1.27203 -4.21833
upperneck 15.1161 -0.307898 -2.11635
head 5.06601 -0.0968342 0.0422467
rclavicle 2.47984e-014 -4.06515e-014
rhumerus -45.0636 29.3212 -87.3905
rradius 58.4018
rwrist 17.7596
rhand -36.3313 2.67566
rfingers 7.12502
rthumb -9.42946 -27.0934
lclavicle 2.47984e-014 -4.06515e-014
lhumerus -34.9326 -32.8045 77.5296
lradius 45.1985
lwrist 14.8712
lhand -31.827 -19.4906
lfingers 7.12502
lthumb -5.08172 10.4285
rfemur -32.6548 -6.57248 16.582
rtibia 62.8226
rfoot 11.4647 -8.37159
rtoes -0.450481
lfemur -6.68598 -1.69999 -25.4151
ltibia 12.3478
lfoot 9.35659 -6.47764
ltoes -25.9885
444
root 1.24213 1.43455 25.1332 -806.754 -174.984 -715.217
lowerback 37.4788 3.46312 -1.07953
upperback 26.5445 -7.12272 -0.529469
thorax 11.4365 -9.49182 0.466034
lowerneck 0.237689 -1.2893 -4.3091
upperneck 15.8988 -0.256069 -2.14009
head 4.75395 -0.0679739 0.0768573
rclavicle 6.37105e-014 -4.72114e-014
rhumerus -45.0303 29.2398 -87.3901
rradius 58.3786
rwrist 17.7299
rhand -36.398 2.55193
rfingers 7.12502
rthumb -9.49384 -27.2142
lclavicle 6.37105e-014 -4.72114e-014
lhumerus -34.9023 -32.6404 77.5861
lradius 45.0728
lwrist 14.7949
lhand -31.8804 -19.6033
lfingers 7.12502
lthumb -5.13324 10.3145
rfemur -31.6381 -6.05031 16.4826
rtibia 61.4606
rfoot 11.2361 -8.52041
rtoes -1.16233
lfemur -6.47736 -1.65955 -25.3889
ltibia 12.4476
lfoot 9.27922 -6.62486
ltoes -26.1036
445
root 1.24037 1.43103 25.134 -807.002 -175.063 -715.146
lowerback 37.2339 3.4089 -1.116
upperback 26.5091 -7.10122 -0.537241
thorax 11.4706 -9.44565 0.463544
lowerneck 0.541733 -1.29557 -4.42096
upperneck 16.2416 -0.202501 -2.13345
head 4.81005 -0.0259467 0.102312
rclavicle -4.09745e-014 -1.53064e-014
rhumerus -45.0581 29.1928 -87.3875
rradius 58.3933
rwrist 17.6593
rhand -36.4019 2.52793
rfingers 7.12502
rthumb -9.49759 -27.238
lclavicle -4.09745e-014 -1.53064e-014
lhumerus -34.9159 -32.4486 77.6681
lradius 44.9536
lwrist 14.7068
lhand -31.9198 -19.6572
lfingers 7.12502
lthumb -5.17125 10.2597
rfemur -30.6361 -5.55114 16.4239
rtibia 60.1107
rfoot 10.9628 -8.66435
rtoes -1.78627
lfemur -6.2875 -1.62744 -25.3303
ltibia 12.5793
lfoot 9.18684 -6.79448
ltoes -26.108
446
root 1.23897 1.42816 25.1363 -807.248 -175.116 -715.097
lowerback 36.9645 3.36665 -1.15264
upperback 26.491 -7.06589 -0.5627
thorax 11.5319 -9.39199 0.433459
lowerneck 0.761181 -1.32272 -4.4821
upperneck 16.6256 -0.169748 -2.15435
head 4.89306 0.00558306 0.110026
rclavicle 1.38155e-014 1.31198e-014
rhumerus -45.0203 29.088 -87.3763
rradius 58.4049
rwrist 17.5752
rhand -36.3024 2.52815
rfingers 7.12502
rthumb -9.40164 -27.2422
lclavicle 1.38155e-014 1.31198e-014
lhumerus -34.9105 -32.3374 77.7147
lradius 44.8553
lwrist 14.6052
lhand -31.9299 -19.6516
lfingers 7.12502
lthumb -5.181 10.2651
rfemur -29.6477 -5.03915 16.3554
rtibia 58.7845
rfoot 10.6518 -8.81902
rtoes -2.52988
lfemur -6.09797 -1.53546 -25.3007
ltibia 12.7043
lfoot 9.12426 -7.02752
ltoes -26.2036
447
root 1.2377 1.42415 25.138 -807.497 -175.17 -715.057
lowerback 36.715 3.33148 -1.20971
upperback 26.4639 -7.03037 -0.570501
thorax 11.58 -9.3441 0.435845
lowerneck 0.958066 -1.34205 -4.56767
upperneck 16.9964 -0.121748 -2.19383
head 4.97613 0.0419807 0.116646
rclavicle -6.4605e-015 -7.15625e-015
rhumerus -44.9818 29.0075 -87.3366
rradius 58.4355
rwrist 17.5028
rhand -36.2146 2.53307
rfingers 7.12502
rthumb -9.31687 -27.2411
lclavicle -6.4605e-015 -7.15625e-015
lhumerus -34.8892 -32.1556 77.7724
lradius 44.7611
lwrist 14.5234
lhand -31.9087 -19.6476
lfingers 7.12502
lthumb -5.16061 10.2695
rfemur -28.6756 -4.52687 16.2964
rtibia 57.4881
rfoot 10.2791 -9.09718
rtoes -2.41082
lfemur -5.90383 -1.48289 -25.2687
ltibia 12.844
lfoot 9.00419 -7.20915
ltoes -26.4008
448
root 1.23614 1.42111 25.1403 -807.743 -175.247 -715.006
lowerback 36.4691 3.27119 -1.22378
upperback 26.4277 -7.01024 -0.583967
thorax 11.6138 -9.29437 0.416327
lowerneck 1.13913 -1.3621 -4.69149
upperneck 17.3571 -0.0778144 -2.2056
head 5.05934 0.0749812 0.138048
rclavicle -5.62064e-014 -1.19271e-014
rhumerus -44.9374 28.9183 -87.2598
rradius 58.4999
rwrist 17.473
rhand -36.0336 2.51901
rfingers 7.12502
rthumb -9.1422 -27.2628
lclavicle -5.62064e-014 -1.19271e-014
lhumerus -34.8666 -31.9239 77.8229
lradius 44.6515
lwrist 14.3641
lhand -31.8445 -19.6242
lfingers 7.12502
lthumb -5.09863 10.2945
rfemur -27.726 -4.04063 16.2756
rtibia 56.2212
rfoot 9.9033 -9.3996
rtoes -1.96538
lfemur -5.70627 -1.39567 -25.2109
ltibia 12.9672
lfoot 8.90699 -7.43233
ltoes -26.5664
449
root 1.23514 1.41736 25.1417 -807.992 -175.276 -714.968
lowerback 36.2017 3.22682 -1.28045
upperback 26.4069 -6.98279 -0.616572
thorax 11.6744 -9.24649 0.391355
lowerneck 1.2838 -1.37487 -4.77793
upperneck 17.7421 -0.023384 -2.20537
head 5.15596 0.115408 0.157614
rclavicle -2.12203e-014 -1.80894e-014
rhumerus -44.8908 28.8189 -87.1871
rradius 58.5674
rwrist 17.4493
rhand -35.8883 2.63665
rfingers 7.12502
rthumb -9.00199 -27.1513
lclavicle -2.12203e-014 -1.80894e-014
lhumerus -34.856 -31.7535 77.8314
lradius 44.6129
lwrist 14.3012
lhand -31.7105 -19.5582
lfingers 7.12502
lthumb -4.96922 10.3635
rfemur -26.7834 -3.52157 16.2096
rtibia 54.9852
rfoot 9.55704 -9.7233
rtoes -1.13249
lfemur -5.50327 -1.31867 -25.1984
ltibia 13.0859
lfoot 8.83724 -7.60247
ltoes -26.5395
450
root 1.23374 1.41378 25.1416 -808.218 -175.281 -714.92
lowerback 35.9339 3.17462 -1.36785
upperback 26.3591 -6.95746 -0.643847
thorax 11.7049 -9.19545 0.395126
lowerneck 1.46303 -1.39392 -4.88439
upperneck 18.084 0.0190744 -2.20849
head 5.23402 0.149212 0.178977
rclavicle 2.42517e-014 -2.98177e-015
rhumerus -44.8427 28.6836 -87.0753
rradius 58.6117
rwrist 17.5541
rhand -35.7893 2.7277
rfingers 7.12502
rthumb -8.90644 -27.0643
lclavicle 2.42517e-014 -2.98177e-015
lhumerus -34.8965 -31.5272 77.869
lradius 44.6111
lwrist 14.1352
lhand -31.6125 -19.42
lfingers 7.12502
lthumb -4.87459 10.5039
rfemur -25.8858 -3.03623 16.1279
rtibia 53.7783
rfoot 9.19966 -10.0168
rtoes -0.511755
lfemur -5.31569 -1.26456 -25.2135
ltibia 13.1889
lfoot 8.75771 -7.75226
ltoes -26.5513
451
root 1.23298 1.40992 25.1413 -808.456 -175.285 -714.881
lowerback 35.6571 3.1328 -1.43736
upperback 26.3342 -6.92396 -0.678312
thorax 11.7656 -9.14297 0.374054
lowerneck 1.67756 -1.40934 -4.94896
upperneck 18.3444 0.0559835 -2.23154
head 5.28049 0.181106 0.186597
rclavicle -1.87852e-014 -2.52457e-014
rhumerus -44.7704 28.5615 -86.9636
rradius 58.6659
rwrist 17.6319
rhand -35.6949 2.86263
rfingers 7.12502
rthumb -8.81543 -26.9332
lclavicle -1.87852e-014 -2.52457e-014
lhumerus -34.8551 -31.3068 77.8438
lradius 44.5655
lwrist 14.004
lhand -31.4382 -19.3261
lfingers 7.12502
lthumb -4.7063 10.6016
rfemur -24.987 -2.5565 16.0582
rtibia 52.595
rfoot 8.84406 -10.3115
rtoes 0.0864269
lfemur -5.11148 -1.12846 -25.2259
ltibia 13.2817
lfoot 8.675 -7.98205
ltoes -26.7887
452
root 1.2317 1.40666 25.142 -808.681 -175.317 -714.852
lowerback 35.3398 3.08223 -1.48732
upperback 26.3057 -6.88781 -0.703586
thorax 11.8368 -9.08327 0.349918
lowerneck 1.90899 -1.43483 -5.08377
upperneck 18.5768 0.071818 -2.21771
head 5.31644 0.200265 0.21643
rclavicle 2.88238e-015 6.61953e-014
rhumerus -44.6952 28.4006 -86.807
rradius 58.6748
rwrist 17.8234
rhand -35.6995 3.08018
rfingers 7.12502
rthumb -8.81983 -26.7155
lclavicle 2.88238e-015 6.61953e-014
lhumerus -34.8476 -31.0639 77.8561
lradius 44.5524
lwrist 13.8411
lhand -31.2654 -19.2001
lfingers 7.12502
lthumb -4.53945 10.7312
rfemur -24.1084 -2.0761 16.0258
rtibia 51.434
rfoot 8.50738 -10.6345
rtoes 0.808837
lfemur -4.90156 -1.10127 -25.2
ltibia 13.3482
lfoot 8.62796 -8.03076
ltoes -26.6719
